<svg width="222" height="70" viewBox="0 0 222 70" fill="none" xmlns="http://www.w3.org/2000/svg">
<path d="M17.8313 47.8675C17.8313 46.8957 17.4762 46.0547 16.766 45.3445C16.0932 44.6343 15.2335 43.9801 14.1868 43.3821C13.1776 42.784 12.0562 42.1859 10.8227 41.5879C9.62661 40.9898 8.50524 40.2983 7.45863 39.5133C6.4494 38.691 5.58969 37.7378 4.87949 36.6539C4.20666 35.5699 3.87025 34.2429 3.87025 32.673C3.87025 31.5516 4.13191 30.5424 4.65521 29.6453C5.17852 28.7108 5.88872 27.9259 6.78581 27.2904C7.68291 26.655 8.74821 26.1691 9.98171 25.8327C11.2526 25.4589 12.6169 25.272 14.0747 25.272C16.0932 25.272 17.9621 25.4402 19.6815 25.7766C21.4384 26.0756 22.9709 26.5055 24.2792 27.0662C24.1296 28.2623 23.8306 29.5519 23.3821 30.9349C22.9335 32.2805 22.5037 33.514 22.0925 34.6354H20.1862L17.8313 28.9164C17.3827 28.7295 16.9155 28.6174 16.4296 28.58C15.9437 28.5052 15.4017 28.4679 14.8036 28.4679C13.6822 28.4679 12.8225 28.8043 12.2244 29.4771C11.6638 30.1125 11.3834 30.8414 11.3834 31.6638C11.3834 32.5982 11.7198 33.4206 12.3927 34.1308C13.1029 34.8036 13.9626 35.439 14.9718 36.0371C16.0184 36.6352 17.1398 37.2332 18.3359 37.8313C19.5694 38.4293 20.6908 39.1209 21.7 39.9058C22.7466 40.6534 23.6063 41.5505 24.2792 42.5971C24.9894 43.6437 25.3445 44.8959 25.3445 46.3537C25.3445 48.9328 24.2978 50.97 22.2046 52.4651C20.1114 53.9229 17.308 54.6518 13.7944 54.6518C12.0002 54.6518 10.1499 54.4649 8.24359 54.0911C6.33726 53.7173 4.69259 53.194 3.30957 52.5212C3.38433 51.1756 3.70205 49.8112 4.26273 48.4282C4.82342 47.0452 5.42148 45.8117 6.05692 44.7277H7.96325L10.7106 50.8392C11.1218 51.1382 11.5703 51.3251 12.0562 51.3998C12.5795 51.4372 13.0655 51.4559 13.514 51.4559C14.598 51.4559 15.5886 51.1382 16.4856 50.5027C17.3827 49.8673 17.8313 48.9889 17.8313 47.8675Z" fill="#123437"/>
<path d="M62.2458 53.979H47.3877V51.7923C47.8362 51.5307 48.3034 51.2877 48.7894 51.0634C49.2753 50.8392 49.836 50.6336 50.4714 50.4467V39.1209C50.4714 35.9063 50.1537 33.5514 49.5183 32.0562C48.9202 30.5237 47.7241 29.7574 45.9299 29.7574C44.4347 29.7574 43.1638 30.2807 42.1172 31.3274C41.0706 32.3366 40.323 33.514 39.8745 34.8597V50.4467C40.4726 50.5962 40.9959 50.7644 41.4444 50.9513C41.9303 51.1382 42.435 51.4185 42.9583 51.7923V53.979H28.1001V51.7923C29.2589 51.1943 30.4924 50.7457 31.8006 50.4467V16.4692L27.5394 16.0207V13.834C28.1001 13.6097 28.8103 13.3855 29.67 13.1612C30.5671 12.9369 31.5016 12.75 32.4735 12.6005C33.4453 12.4136 34.4172 12.2641 35.389 12.152C36.3609 12.0024 37.2206 11.8903 37.9682 11.8156H39.8745V31.6077H39.9306C40.3044 30.748 40.809 29.9443 41.4444 29.1968C42.0799 28.4118 42.7901 27.739 43.575 27.1783C44.3973 26.5802 45.2758 26.113 46.2102 25.7766C47.1447 25.4402 48.1352 25.272 49.1819 25.272C50.677 25.272 52.004 25.4589 53.1627 25.8327C54.3588 26.1691 55.3494 26.7858 56.1343 27.6829C56.9193 28.58 57.5174 29.7948 57.9285 31.3274C58.3397 32.8225 58.5453 34.7288 58.5453 37.0463V50.4467C59.1807 50.5962 59.8162 50.7644 60.4516 50.9513C61.087 51.1382 61.6851 51.4185 62.2458 51.7923V53.979Z" fill="#123437"/>
<path d="M89.2511 45.8491C89.2511 46.6714 89.2511 47.3816 89.2511 47.9797C89.2884 48.5777 89.3445 49.2132 89.4193 49.886L93.288 50.4467V52.4091C92.8394 52.6333 92.2227 52.8576 91.4377 53.0819C90.6901 53.3062 89.8865 53.5304 89.0268 53.7547C88.2044 53.9416 87.3821 54.0911 86.5598 54.2033C85.7374 54.3528 85.0085 54.4649 84.3731 54.5397H82.4668C82.093 53.68 81.8687 52.8202 81.7939 51.9605C81.7192 51.1008 81.6631 50.0542 81.6257 48.8207H81.3454C81.1585 49.5683 80.8408 50.2972 80.3922 51.0074C79.9437 51.6802 79.3643 52.2969 78.6541 52.8576C77.9813 53.3809 77.1777 53.8108 76.2432 54.1472C75.3087 54.4836 74.2621 54.6518 73.1033 54.6518C71.8698 54.6518 70.7298 54.4649 69.6832 54.0911C68.6366 53.7173 67.7208 53.194 66.9358 52.5212C66.1509 51.8484 65.5341 51.0447 65.0856 50.1103C64.637 49.1384 64.4127 48.0544 64.4127 46.8583C64.4127 45.1762 64.7305 43.7932 65.3659 42.7092C66.0013 41.6252 66.9919 40.7468 68.3375 40.074C69.7206 39.3638 71.4774 38.8405 73.608 38.5041C75.7759 38.1677 78.3925 37.9247 81.4575 37.7752C81.7566 34.5606 81.6257 32.2058 81.0651 30.7106C80.5044 29.2154 79.2896 28.4679 77.4206 28.4679C76.2619 28.4679 75.1966 28.6548 74.2247 29.0285L71.5895 35.7568H69.1225C68.8235 35.3082 68.5244 34.8036 68.2254 34.2429C67.9637 33.6448 67.7021 33.0281 67.4404 32.3927C67.2162 31.7198 67.0106 31.047 66.8237 30.3742C66.6742 29.7014 66.562 29.0472 66.4873 28.4118C67.9077 27.4399 69.7392 26.6737 71.982 26.113C74.2247 25.5523 76.5983 25.272 79.1027 25.272C81.2333 25.272 82.9714 25.5149 84.317 26.0009C85.6627 26.4494 86.7093 27.0848 87.4569 27.9072C88.2418 28.6921 88.7838 29.6266 89.0828 30.7106C89.3819 31.7946 89.5314 32.9533 89.5314 34.1868C89.5314 36.4296 89.4753 38.4667 89.3632 40.2983C89.2884 42.0925 89.2511 43.9427 89.2511 45.8491ZM76.6357 50.1663C77.4206 50.1663 78.0934 50.0168 78.6541 49.7178C79.2148 49.4188 79.682 49.0637 80.0558 48.6525C80.467 48.2413 80.766 47.7928 80.9529 47.3068C81.1772 46.8209 81.3454 46.3911 81.4575 46.0173V40.4104C79.7007 40.4478 78.2616 40.5599 77.1403 40.7468C76.0189 40.9337 75.1405 41.2515 74.5051 41.7C73.8696 42.1112 73.4211 42.6532 73.1594 43.326C72.9351 43.9614 72.823 44.7464 72.823 45.6809C72.823 47.1013 73.1594 48.2039 73.8322 48.9889C74.5051 49.7739 75.4395 50.1663 76.6357 50.1663Z" fill="#123437"/>
<path d="M111.322 53.979H95.847V51.7923C96.4077 51.4933 96.987 51.2503 97.5851 51.0634C98.1832 50.8392 98.8373 50.6336 99.5475 50.4467V29.9256L95.847 29.4771V27.2904C96.4077 27.0662 97.0992 26.8419 97.9215 26.6176C98.7812 26.3933 99.6783 26.2064 100.613 26.0569C101.547 25.87 102.463 25.7205 103.36 25.6084C104.257 25.4589 105.042 25.3467 105.715 25.272H107.621V50.4467C108.369 50.6336 109.042 50.8392 109.64 51.0634C110.238 51.2503 110.799 51.4933 111.322 51.7923V53.979ZM98.5943 16.7496C98.5943 15.4413 99.0429 14.4134 99.94 13.6658C100.837 12.9182 101.996 12.5444 103.416 12.5444C104.837 12.5444 105.995 12.9182 106.892 13.6658C107.79 14.4134 108.238 15.4413 108.238 16.7496C108.238 18.0205 107.79 19.0297 106.892 19.7773C105.995 20.5248 104.837 20.8986 103.416 20.8986C101.996 20.8986 100.837 20.5248 99.94 19.7773C99.0429 19.0297 98.5943 18.0205 98.5943 16.7496Z" fill="#123437"/>
<path d="M116.258 49.9981C116.258 48.6525 116.687 47.5685 117.547 46.7462C118.407 45.9238 119.547 45.5127 120.967 45.5127C122.388 45.5127 123.547 45.9238 124.444 46.7462C125.341 47.5685 125.789 48.6525 125.789 49.9981C125.789 51.3438 125.341 52.4278 124.444 53.2501C123.547 54.0351 122.388 54.4275 120.967 54.4275C119.547 54.4275 118.407 54.0351 117.547 53.2501C116.687 52.4278 116.258 51.3438 116.258 49.9981Z" fill="#123437"/>
<path d="M145.968 65.1927H130.493V63.006C131.764 62.4079 132.998 61.9594 134.194 61.6604V29.9256L130.493 29.4771V27.2904C131.091 27.0288 131.82 26.7858 132.68 26.5615C133.577 26.3373 134.493 26.1504 135.427 26.0009C136.362 25.814 137.259 25.6644 138.119 25.5523C139.016 25.4402 139.763 25.3467 140.361 25.272H142.268V31.5516H142.324C142.959 29.7574 143.95 28.2623 145.295 27.0662C146.678 25.87 148.585 25.272 151.014 25.272C152.659 25.272 154.135 25.5523 155.444 26.113C156.789 26.6363 157.911 27.4773 158.808 28.6361C159.742 29.7574 160.453 31.2152 160.938 33.0094C161.462 34.7662 161.723 36.8781 161.723 39.3451C161.723 41.7 161.387 43.8306 160.714 45.7369C160.079 47.6433 159.144 49.2505 157.911 50.5588C156.715 51.8671 155.238 52.8763 153.481 53.5865C151.762 54.2967 149.8 54.6518 147.594 54.6518C146.323 54.6518 145.314 54.5584 144.566 54.3715C143.856 54.222 143.09 53.9416 142.268 53.5304V61.6604C142.866 61.7351 143.464 61.8659 144.062 62.0528C144.66 62.2771 145.295 62.5948 145.968 63.006V65.1927ZM147.762 29.7574C146.492 29.7574 145.351 30.206 144.342 31.1031C143.37 32.0002 142.679 33.3832 142.268 35.2521V50.1663C142.866 50.6149 143.501 50.9513 144.174 51.1756C144.847 51.3625 145.725 51.4559 146.809 51.4559C148.94 51.4559 150.51 50.428 151.519 48.3721C152.528 46.3163 153.033 43.3073 153.033 39.3451C153.033 36.2801 152.64 33.9252 151.855 32.2805C151.108 30.5985 149.743 29.7574 147.762 29.7574Z" fill="#123437"/>
<path d="M179.742 32.3927C179.294 32.6169 178.771 32.9907 178.172 33.514C177.574 34.0373 177.032 34.897 176.546 36.0932V50.4467C177.294 50.5214 178.042 50.671 178.789 50.8952C179.537 51.0821 180.284 51.3811 181.032 51.7923V53.979H164.772V51.7923C165.445 51.4185 166.08 51.1382 166.678 50.9513C167.277 50.7644 167.875 50.5962 168.473 50.4467V29.9256L164.772 29.4771V27.2904C165.37 27.0288 166.099 26.7858 166.959 26.5615C167.856 26.3373 168.772 26.1504 169.706 26.0009C170.641 25.814 171.538 25.6644 172.397 25.5523C173.295 25.4402 174.042 25.3467 174.64 25.272H176.546V32.7291H176.771C177.07 31.9067 177.5 31.047 178.06 30.1499C178.658 29.2528 179.35 28.4305 180.135 27.6829C180.92 26.9353 181.78 26.3373 182.714 25.8887C183.648 25.4402 184.62 25.2346 185.63 25.272C186.041 25.7953 186.396 26.5428 186.695 27.5147C186.994 28.4492 187.237 29.3463 187.424 30.206V32.3927H179.742Z" fill="#123437"/>
<path d="M189.367 39.9619C189.367 37.6818 189.704 35.6446 190.377 33.8504C191.087 32.0189 192.077 30.4676 193.348 29.1968C194.656 27.9259 196.226 26.954 198.058 26.2812C199.889 25.6084 201.964 25.272 204.282 25.272C206.898 25.272 209.141 25.6458 211.01 26.3933C212.916 27.1035 214.467 28.1128 215.663 29.421C216.897 30.6919 217.794 32.2431 218.355 34.0747C218.915 35.8689 219.196 37.8313 219.196 39.9619C219.196 42.242 218.859 44.2978 218.186 46.1294C217.514 47.9236 216.523 49.4561 215.215 50.727C213.944 51.9979 212.374 52.9698 210.505 53.6426C208.674 54.3154 206.599 54.6518 204.282 54.6518C201.74 54.6518 199.534 54.2967 197.665 53.5865C195.796 52.8389 194.245 51.8297 193.012 50.5588C191.778 49.2505 190.862 47.6993 190.264 45.9051C189.666 44.0736 189.367 42.0925 189.367 39.9619ZM198.058 39.9619C198.058 41.6439 198.151 43.1952 198.338 44.6156C198.563 45.9986 198.936 47.176 199.46 48.1479C199.983 49.1197 200.693 49.886 201.59 50.4467C202.487 50.97 203.646 51.2316 205.066 51.2316C205.889 51.2316 206.636 51.0447 207.309 50.671C207.982 50.2598 208.561 49.6243 209.047 48.7646C209.533 47.8675 209.888 46.7088 210.113 45.2884C210.374 43.8306 210.505 42.0551 210.505 39.9619C210.505 38.2425 210.393 36.6912 210.169 35.3082C209.982 33.9252 209.627 32.7478 209.103 31.7759C208.617 30.804 207.945 30.0565 207.085 29.5332C206.225 28.9725 205.141 28.6921 203.833 28.6921C202.861 28.6921 202.02 28.8977 201.31 29.3089C200.6 29.6827 200.002 30.3181 199.516 31.2152C199.03 32.0749 198.656 33.2337 198.394 34.6915C198.17 36.1119 198.058 37.8687 198.058 39.9619Z" fill="#123437"/>
</svg>
