<svg width="66" height="28" viewBox="0 0 66 28" fill="none" xmlns="http://www.w3.org/2000/svg">
<path d="M9.44298 23.268C9.44298 22.6515 9.21435 22.118 8.75709 21.6675C8.32389 21.217 7.77036 20.8021 7.0965 20.4228C6.4467 20.0434 5.7247 19.664 4.93051 19.2847C4.16038 18.9053 3.43839 18.4667 2.76452 17.9688C2.11473 17.4471 1.5612 16.8425 1.10393 16.155C0.670736 15.4674 0.454137 14.6257 0.454137 13.6298C0.454137 12.9185 0.622603 12.2784 0.959534 11.7093C1.29647 11.1166 1.75373 10.6187 2.33133 10.2156C2.90892 9.81253 3.59482 9.5043 4.38901 9.29091C5.20727 9.05381 6.0857 8.93526 7.0243 8.93526C8.32389 8.93526 9.52721 9.04195 10.6343 9.25534C11.7654 9.44502 12.7521 9.71769 13.5945 10.0733C13.4982 10.8321 13.3057 11.6501 13.0169 12.5273C12.7281 13.3809 12.4513 14.1633 12.1866 14.8746H10.9592L9.44298 11.247C9.15418 11.1284 8.85335 11.0573 8.54049 11.0336C8.22762 10.9862 7.87866 10.9625 7.49359 10.9625C6.7716 10.9625 6.21807 11.1759 5.833 11.6026C5.47201 12.0057 5.29151 12.468 5.29151 12.9897C5.29151 13.5824 5.50811 14.104 5.9413 14.5545C6.39857 14.9813 6.9521 15.3844 7.60189 15.7637C8.27575 16.1431 8.99775 16.5225 9.76788 16.9018C10.5621 17.2812 11.2841 17.7198 11.9339 18.2177C12.6077 18.6919 13.1613 19.261 13.5945 19.9248C14.0517 20.5887 14.2804 21.383 14.2804 22.3077C14.2804 23.9437 13.6065 25.2359 12.2588 26.1843C10.911 27.109 9.10605 27.5713 6.8438 27.5713C5.6886 27.5713 4.49731 27.4528 3.26992 27.2157C2.04253 26.9786 0.983601 26.6466 0.0931396 26.2198C0.141273 25.3663 0.345838 24.5009 0.706836 23.6236C1.06783 22.7463 1.4529 21.9639 1.86203 21.2763H3.08942L4.85831 25.1529C5.12304 25.3426 5.41184 25.4611 5.7247 25.5086C6.06164 25.5323 6.3745 25.5441 6.6633 25.5441C7.36123 25.5441 7.99899 25.3426 8.57659 24.9395C9.15418 24.5364 9.44298 23.9793 9.44298 23.268Z" fill="white"/>
<path d="M36.5954 27.1445H27.0289V25.7575C27.3177 25.5915 27.6186 25.4374 27.9314 25.2952C28.2443 25.1529 28.6053 25.0225 29.0144 24.9039V17.7198C29.0144 15.6808 28.8099 14.187 28.4007 13.2386C28.0157 12.2665 27.2455 11.7805 26.0903 11.7805C25.1277 11.7805 24.3094 12.1124 23.6355 12.7763C22.9617 13.4164 22.4804 14.1633 22.1916 15.0169V24.9039C22.5766 24.9988 22.9136 25.1055 23.2024 25.224C23.5152 25.3426 23.8401 25.5204 24.177 25.7575V27.1445H14.6106V25.7575C15.3567 25.3781 16.1509 25.0936 16.9932 24.9039V3.35155L14.2496 3.06703V1.68C14.6106 1.53774 15.0679 1.39548 15.6214 1.25322C16.199 1.11096 16.8007 0.992408 17.4264 0.897568C18.0521 0.779018 18.6778 0.684178 19.3036 0.613048C19.9293 0.518207 20.4828 0.447078 20.9642 0.399658H22.1916V12.9541H22.2277C22.4683 12.4088 22.7932 11.899 23.2024 11.4248C23.6115 10.9269 24.0687 10.5001 24.5741 10.1445C25.1036 9.76511 25.6692 9.46873 26.2708 9.25534C26.8725 9.04195 27.5103 8.93526 28.1841 8.93526C29.1468 8.93526 30.0011 9.05381 30.7472 9.29091C31.5173 9.5043 32.1551 9.89551 32.6605 10.4646C33.1659 11.0336 33.551 11.8042 33.8157 12.7763C34.0804 13.7247 34.2128 14.9339 34.2128 16.4039V24.9039C34.6219 24.9988 35.031 25.1055 35.4402 25.224C35.8493 25.3426 36.2344 25.5204 36.5954 25.7575V27.1445Z" fill="white"/>
<path d="M52.5388 21.9876C52.5388 22.5092 52.5388 22.9597 52.5388 23.3391C52.5628 23.7184 52.5989 24.1215 52.6471 24.5483L55.138 24.9039V26.1487C54.8492 26.291 54.4521 26.4332 53.9467 26.5755C53.4653 26.7178 52.9479 26.86 52.3944 27.0023C51.8649 27.1208 51.3354 27.2157 50.806 27.2868C50.2765 27.3816 49.8072 27.4528 49.3981 27.5002H48.1707C47.93 26.9549 47.7856 26.4095 47.7375 25.8642C47.6894 25.3189 47.6533 24.655 47.6292 23.8726H47.4487C47.3284 24.3468 47.1238 24.8091 46.835 25.2596C46.5462 25.6864 46.1732 26.0776 45.7159 26.4332C45.2827 26.7652 44.7653 27.0378 44.1636 27.2512C43.562 27.4646 42.8881 27.5713 42.142 27.5713C41.3478 27.5713 40.6138 27.4528 39.94 27.2157C39.2661 26.9786 38.6765 26.6466 38.1711 26.2198C37.6657 25.7931 37.2686 25.2833 36.9798 24.6906C36.691 24.0741 36.5466 23.3865 36.5466 22.6278C36.5466 21.5608 36.7511 20.6836 37.1603 19.996C37.5694 19.3084 38.2072 18.7512 39.0736 18.3244C39.964 17.8739 41.0951 17.542 42.4669 17.3286C43.8628 17.1152 45.5475 16.9611 47.5209 16.8663C47.7134 14.8272 47.6292 13.3335 47.2682 12.3851C46.9072 11.4367 46.125 10.9625 44.9217 10.9625C44.1757 10.9625 43.4898 11.081 42.864 11.3181L41.1673 15.5859H39.579C39.3864 15.3014 39.1939 14.9813 39.0014 14.6257C38.8329 14.2463 38.6644 13.8551 38.496 13.452C38.3516 13.0252 38.2192 12.5985 38.0989 12.1717C38.0026 11.7449 37.9304 11.33 37.8823 10.9269C38.7968 10.3104 39.9761 9.82438 41.42 9.46873C42.864 9.11308 44.3923 8.93526 46.0047 8.93526C47.3765 8.93526 48.4956 9.08937 49.362 9.3976C50.2284 9.68212 50.9023 10.0852 51.3836 10.6068C51.889 11.1047 52.2379 11.6975 52.4305 12.3851C52.623 13.0727 52.7193 13.8077 52.7193 14.5901C52.7193 16.0127 52.6832 17.3049 52.611 18.4667C52.5628 19.6048 52.5388 20.7784 52.5388 21.9876ZM44.4163 24.7261C44.9217 24.7261 45.3549 24.6313 45.7159 24.4416C46.0769 24.2519 46.3778 24.0267 46.6184 23.7659C46.8831 23.5051 47.0757 23.2205 47.196 22.9123C47.3404 22.6041 47.4487 22.3314 47.5209 22.0943V18.5378C46.3898 18.5615 45.4632 18.6326 44.7412 18.7512C44.0192 18.8697 43.4537 19.0713 43.0445 19.3558C42.6354 19.6166 42.3466 19.9604 42.1781 20.3872C42.0337 20.7903 41.9615 21.2882 41.9615 21.8809C41.9615 22.7819 42.1781 23.4813 42.6113 23.9793C43.0445 24.4772 43.6462 24.7261 44.4163 24.7261Z" fill="white"/>
<path d="M65.3051 27.1445H55.3416V25.7575C55.7026 25.5678 56.0756 25.4137 56.4607 25.2952C56.8457 25.1529 57.2669 25.0225 57.7242 24.9039V11.8872L55.3416 11.6026V10.2156C55.7026 10.0733 56.1478 9.93108 56.6773 9.78882C57.2308 9.64656 57.8084 9.52801 58.4101 9.43317C59.0117 9.31462 59.6014 9.21978 60.179 9.14865C60.7565 9.05381 61.2619 8.98268 61.6951 8.93526H62.9225V24.9039C63.4039 25.0225 63.8371 25.1529 64.2221 25.2952C64.6072 25.4137 64.9682 25.5678 65.3051 25.7575V27.1445ZM57.1105 3.52938C57.1105 2.69953 57.3993 2.0475 57.9769 1.5733C58.5545 1.0991 59.3005 0.862004 60.215 0.862004C61.1296 0.862004 61.8756 1.0991 62.4532 1.5733C63.0308 2.0475 63.3196 2.69953 63.3196 3.52938C63.3196 4.33552 63.0308 4.97569 62.4532 5.44989C61.8756 5.92409 61.1296 6.16119 60.215 6.16119C59.3005 6.16119 58.5545 5.92409 57.9769 5.44989C57.3993 4.97569 57.1105 4.33552 57.1105 3.52938Z" fill="white"/>
</svg>
