<svg width="66" height="28" viewBox="0 0 66 28" fill="none" xmlns="http://www.w3.org/2000/svg">
<path d="M9.44298 23.3069C9.44298 22.6904 9.21435 22.157 8.75709 21.7065C8.32389 21.256 7.77036 20.8411 7.0965 20.4617C6.4467 20.0823 5.7247 19.703 4.93051 19.3236C4.16038 18.9443 3.43839 18.5056 2.76452 18.0077C2.11473 17.4861 1.5612 16.8815 1.10393 16.1939C0.670736 15.5063 0.454137 14.6646 0.454137 13.6688C0.454137 12.9575 0.622603 12.3173 0.959534 11.7483C1.29647 11.1555 1.75373 10.6576 2.33133 10.2545C2.90892 9.85147 3.59482 9.54324 4.38901 9.32985C5.20727 9.09275 6.0857 8.9742 7.0243 8.9742C8.32389 8.9742 9.52721 9.08089 10.6343 9.29428C11.7654 9.48396 12.7521 9.75663 13.5945 10.1123C13.4982 10.871 13.3057 11.689 13.0169 12.5663C12.7281 13.4198 12.4513 14.2023 12.1866 14.9136H10.9592L9.44298 11.2859C9.15418 11.1674 8.85335 11.0962 8.54049 11.0725C8.22762 11.0251 7.87866 11.0014 7.49359 11.0014C6.7716 11.0014 6.21807 11.2148 5.833 11.6416C5.47201 12.0446 5.29151 12.507 5.29151 13.0286C5.29151 13.6214 5.50811 14.143 5.9413 14.5935C6.39857 15.0202 6.9521 15.4233 7.60189 15.8027C8.27575 16.182 8.99775 16.5614 9.76788 16.9408C10.5621 17.3201 11.2841 17.7588 11.9339 18.2567C12.6077 18.7309 13.1613 19.2999 13.5945 19.9638C14.0517 20.6277 14.2804 21.4219 14.2804 22.3466C14.2804 23.9826 13.6065 25.2748 12.2588 26.2232C10.911 27.1479 9.10605 27.6103 6.8438 27.6103C5.6886 27.6103 4.49731 27.4917 3.26992 27.2546C2.04253 27.0175 0.983601 26.6856 0.0931396 26.2588C0.141273 25.4052 0.345838 24.5398 0.706836 23.6625C1.06783 22.7853 1.4529 22.0028 1.86203 21.3153H3.08942L4.85831 25.1918C5.12304 25.3815 5.41184 25.5001 5.7247 25.5475C6.06164 25.5712 6.3745 25.5831 6.6633 25.5831C7.36123 25.5831 7.99899 25.3815 8.57659 24.9785C9.15418 24.5754 9.44298 24.0182 9.44298 23.3069Z" fill="#0E5F4C"/>
<path d="M36.5954 27.1835H27.0289V25.7964C27.3177 25.6305 27.6186 25.4764 27.9314 25.3341C28.2443 25.1918 28.6053 25.0614 29.0144 24.9429V17.7588C29.0144 15.7197 28.8099 14.226 28.4007 13.2776C28.0157 12.3055 27.2455 11.8194 26.0903 11.8194C25.1277 11.8194 24.3094 12.1513 23.6355 12.8152C22.9617 13.4554 22.4804 14.2023 22.1916 15.0558V24.9429C22.5766 25.0377 22.9136 25.1444 23.2024 25.263C23.5152 25.3815 23.8401 25.5593 24.177 25.7964V27.1835H14.6106V25.7964C15.3567 25.4171 16.1509 25.1326 16.9932 24.9429V3.39049L14.2496 3.10597V1.71894C14.6106 1.57668 15.0679 1.43442 15.6214 1.29216C16.199 1.1499 16.8007 1.03135 17.4264 0.936509C18.0521 0.817959 18.6778 0.723119 19.3036 0.651988C19.9293 0.557148 20.4828 0.486018 20.9642 0.438599H22.1916V12.993H22.2277C22.4683 12.4477 22.7932 11.9379 23.2024 11.4637C23.6115 10.9658 24.0687 10.5391 24.5741 10.1834C25.1036 9.80405 25.6692 9.50767 26.2708 9.29428C26.8725 9.08089 27.5103 8.9742 28.1841 8.9742C29.1468 8.9742 30.0011 9.09275 30.7472 9.32985C31.5173 9.54324 32.1551 9.93445 32.6605 10.5035C33.1659 11.0725 33.551 11.8431 33.8157 12.8152C34.0804 13.7636 34.2128 14.9728 34.2128 16.4428V24.9429C34.6219 25.0377 35.031 25.1444 35.4402 25.263C35.8493 25.3815 36.2344 25.5593 36.5954 25.7964V27.1835Z" fill="#0E5F4C"/>
<path d="M52.5388 22.0266C52.5388 22.5482 52.5388 22.9987 52.5388 23.378C52.5628 23.7574 52.5989 24.1605 52.6471 24.5872L55.138 24.9429V26.1877C54.8492 26.3299 54.4521 26.4722 53.9467 26.6144C53.4653 26.7567 52.9479 26.899 52.3944 27.0412C51.8649 27.1598 51.3354 27.2546 50.806 27.3257C50.2765 27.4206 49.8072 27.4917 49.3981 27.5391H48.1707C47.93 26.9938 47.7856 26.4485 47.7375 25.9031C47.6894 25.3578 47.6533 24.6939 47.6292 23.9115H47.4487C47.3284 24.3857 47.1238 24.848 46.835 25.2985C46.5462 25.7253 46.1732 26.1165 45.7159 26.4722C45.2827 26.8041 44.7653 27.0768 44.1636 27.2902C43.562 27.5036 42.8881 27.6103 42.142 27.6103C41.3478 27.6103 40.6138 27.4917 39.94 27.2546C39.2661 27.0175 38.6765 26.6856 38.1711 26.2588C37.6657 25.832 37.2686 25.3222 36.9798 24.7295C36.691 24.113 36.5466 23.4254 36.5466 22.6667C36.5466 21.5998 36.7511 20.7225 37.1603 20.0349C37.5694 19.3473 38.2072 18.7901 39.0736 18.3634C39.964 17.9129 41.0951 17.5809 42.4669 17.3675C43.8628 17.1541 45.5475 17 47.5209 16.9052C47.7134 14.8661 47.6292 13.3724 47.2682 12.424C46.9072 11.4756 46.125 11.0014 44.9217 11.0014C44.1757 11.0014 43.4898 11.12 42.864 11.3571L41.1673 15.6249H39.579C39.3864 15.3403 39.1939 15.0202 39.0014 14.6646C38.8329 14.2852 38.6644 13.894 38.496 13.491C38.3516 13.0642 38.2192 12.6374 38.0989 12.2106C38.0026 11.7838 37.9304 11.3689 37.8823 10.9658C38.7968 10.3494 39.9761 9.86332 41.42 9.50767C42.864 9.15202 44.3923 8.9742 46.0047 8.9742C47.3765 8.9742 48.4956 9.12831 49.362 9.43654C50.2284 9.72106 50.9023 10.1241 51.3836 10.6458C51.889 11.1437 52.2379 11.7364 52.4305 12.424C52.623 13.1116 52.7193 13.8466 52.7193 14.629C52.7193 16.0516 52.6832 17.3438 52.611 18.5056C52.5628 19.6437 52.5388 20.8173 52.5388 22.0266ZM44.4163 24.7651C44.9217 24.7651 45.3549 24.6702 45.7159 24.4805C46.0769 24.2909 46.3778 24.0656 46.6184 23.8048C46.8831 23.544 47.0757 23.2595 47.196 22.9512C47.3404 22.643 47.4487 22.3703 47.5209 22.1332V18.5767C46.3898 18.6005 45.4632 18.6716 44.7412 18.7901C44.0192 18.9087 43.4537 19.1102 43.0445 19.3947C42.6354 19.6556 42.3466 19.9993 42.1781 20.4261C42.0337 20.8292 41.9615 21.3271 41.9615 21.9199C41.9615 22.8208 42.1781 23.5203 42.6113 24.0182C43.0445 24.5161 43.6462 24.7651 44.4163 24.7651Z" fill="#0E5F4C"/>
<path d="M65.3051 27.1835H55.3416V25.7964C55.7026 25.6068 56.0756 25.4526 56.4607 25.3341C56.8457 25.1918 57.2669 25.0614 57.7242 24.9429V11.9261L55.3416 11.6416V10.2545C55.7026 10.1123 56.1478 9.97002 56.6773 9.82776C57.2308 9.6855 57.8084 9.56695 58.4101 9.47211C59.0117 9.35356 59.6014 9.25872 60.179 9.18759C60.7565 9.09275 61.2619 9.02162 61.6951 8.9742H62.9225V24.9429C63.4039 25.0614 63.8371 25.1918 64.2221 25.3341C64.6072 25.4526 64.9682 25.6068 65.3051 25.7964V27.1835ZM57.1105 3.56832C57.1105 2.73847 57.3993 2.08644 57.9769 1.61224C58.5545 1.13804 59.3005 0.900944 60.215 0.900944C61.1296 0.900944 61.8756 1.13804 62.4532 1.61224C63.0308 2.08644 63.3196 2.73847 63.3196 3.56832C63.3196 4.37446 63.0308 5.01463 62.4532 5.48883C61.8756 5.96303 61.1296 6.20013 60.215 6.20013C59.3005 6.20013 58.5545 5.96303 57.9769 5.48883C57.3993 5.01463 57.1105 4.37446 57.1105 3.56832Z" fill="#0E5F4C"/>
</svg>
