<svg width="48" height="48" viewBox="0 0 48 48" fill="none" xmlns="http://www.w3.org/2000/svg">
<rect x="0.5" y="0.5" width="47" height="47" rx="11.5" fill="white"/>
<rect x="0.5" y="0.5" width="47" height="47" rx="11.5" stroke="#E4E4E2"/>
<path d="M24.558 14.982C24.1941 14.8589 23.7998 14.8589 23.436 14.982L16.66 17.277C16.4392 17.3487 16.2443 17.4834 16.0992 17.6644C15.954 17.8455 15.8649 18.065 15.843 18.296C15.506 22.522 16.091 25.647 17.48 28.008C18.824 30.293 20.974 31.954 23.997 33.192C27.023 31.954 29.175 30.293 30.519 28.008C31.909 25.648 32.494 22.522 32.157 18.296C32.135 18.065 32.0459 17.8455 31.9007 17.6644C31.7556 17.4834 31.5607 17.3487 31.34 17.277L24.558 14.982ZM22.955 13.562C23.6307 13.3329 24.363 13.3326 25.039 13.561L31.821 15.856C32.3191 16.0219 32.7578 16.33 33.083 16.7423C33.4082 17.1545 33.6056 17.6529 33.651 18.176C34.004 22.586 33.411 26.052 31.812 28.769C30.208 31.494 27.651 33.367 24.272 34.698C24.0952 34.7677 23.8987 34.7677 23.722 34.698C20.346 33.367 17.79 31.494 16.187 28.769C14.589 26.052 13.996 22.585 14.348 18.176C14.3933 17.6529 14.5907 17.1545 14.9159 16.7423C15.2411 16.33 15.6798 16.0219 16.178 15.856L22.955 13.562Z" fill="#0E5F4C"/>
<path opacity="0.5" d="M24 32C29.032 29.96 31.406 26.382 30.943 19.633C30.891 18.866 30.367 18.217 29.64 17.964L24.82 16.286C24.5563 16.1942 24.2792 16.1472 24 16.147V32Z" fill="#0E5F4C"/>
</svg>
