<svg width="105" height="29" viewBox="0 0 105 29" fill="none" xmlns="http://www.w3.org/2000/svg">
<g clip-path="url(#clip0_1_3836)">
<g clip-path="url(#clip1_1_3836)">
<path d="M42.2549 12.3645H43.6672V18.7623H42.2549V17.8409C41.7184 18.5704 40.9599 18.9286 39.9661 18.9286C39.0636 18.9286 38.3049 18.6088 37.6641 17.9561C37.0231 17.3036 36.7094 16.4975 36.7094 15.5635C36.7094 14.6165 37.0231 13.8233 37.6641 13.1707C38.3049 12.518 39.0636 12.1982 39.9661 12.1982C40.9599 12.1982 41.7184 12.5565 42.2549 13.2731V12.3645ZM40.1884 17.6108C40.7769 17.6108 41.2736 17.4189 41.6663 17.0349C42.0587 16.6382 42.2549 16.1521 42.2549 15.5635C42.2549 14.9748 42.0587 14.4887 41.6663 14.1048C41.2736 13.7081 40.7769 13.5162 40.1884 13.5162C39.5996 13.5162 39.1027 13.7081 38.7103 14.1048C38.318 14.4887 38.1218 14.9748 38.1218 15.5635C38.1218 16.1521 38.318 16.6382 38.7103 17.0349C39.1027 17.4189 39.5996 17.6108 40.1884 17.6108Z" fill="white"/>
<path d="M47.6965 14.9621C48.7036 15.1797 50.0114 15.5891 49.9853 16.9582C49.9853 17.5723 49.7367 18.0585 49.2529 18.4041C48.7691 18.7494 48.1674 18.9286 47.435 18.9286C46.14 18.9286 45.1854 18.3656 44.7668 17.4314L45.9833 16.7406C46.2057 17.3549 46.6895 17.6618 47.435 17.6618C48.1803 17.6618 48.5467 17.4189 48.5467 16.9454C48.5467 16.5359 47.9974 16.2927 47.3041 16.1265C46.3233 15.8833 45.0022 15.4995 45.0283 14.1558C45.0283 13.5673 45.2507 13.094 45.7086 12.7356C46.1662 12.3774 46.7418 12.1982 47.4218 12.1982C48.5074 12.1982 49.3838 12.6974 49.8415 13.529L48.6512 14.1815C48.4288 13.6954 48.0103 13.4522 47.4218 13.4522C46.8857 13.4522 46.4671 13.6826 46.4671 14.1304C46.4671 14.5527 47.0165 14.7702 47.6965 14.9621Z" fill="white"/>
<path d="M54.8186 13.6963H53.1968V16.7672C53.1968 17.5862 53.7463 17.5733 54.8186 17.5221V18.7633C52.6607 19.0193 51.7845 18.4435 51.7845 16.7672V13.6963H50.5811V12.3655H51.7845V10.9837L53.1968 10.5742V12.3655H54.8186V13.6963Z" fill="white"/>
<path d="M60.9825 12.3645H62.3951V18.7623H60.9825V17.8409C60.4463 18.5704 59.6878 18.9286 58.6937 18.9286C57.7914 18.9286 57.0329 18.6088 56.392 17.9561C55.7512 17.3036 55.437 16.4975 55.437 15.5635C55.437 14.6165 55.7512 13.8233 56.392 13.1707C57.0329 12.518 57.7914 12.1982 58.6937 12.1982C59.6878 12.1982 60.4463 12.5565 60.9825 13.2731V12.3645ZM58.9161 17.6108C59.5046 17.6108 60.0017 17.4189 60.394 17.0349C60.7863 16.6382 60.9825 16.1521 60.9825 15.5635C60.9825 14.9748 60.7863 14.4887 60.394 14.1048C60.0017 13.7081 59.5046 13.5162 58.9161 13.5162C58.3275 13.5162 57.8305 13.7081 57.4381 14.1048C57.0458 14.4887 56.8496 14.9748 56.8496 15.5635C56.8496 16.1521 57.0458 16.6382 57.4381 17.0349C57.8305 17.4189 58.3275 17.6108 58.9161 17.6108Z" fill="white"/>
<path d="M69.8986 14.8341V18.7623H68.4859V14.9748C68.4859 14.0152 67.9236 13.4907 67.0213 13.4907C66.0271 13.4907 65.3601 14.092 65.3601 15.3332V18.7623H63.9478V12.3645H65.3601V13.1834C65.7919 12.5309 66.4589 12.1982 67.3874 12.1982C68.8915 12.1982 69.8986 13.1963 69.8986 14.8341Z" fill="white"/>
<path d="M76.5311 12.3645H77.9436V18.7623H76.5311V17.8409C75.9946 18.5704 75.2359 18.9286 74.2421 18.9286C73.3397 18.9286 72.581 18.6088 71.9403 17.9561C71.2995 17.3036 70.9854 16.4975 70.9854 15.5635C70.9854 14.6165 71.2995 13.8233 71.9403 13.1707C72.581 12.518 73.3397 12.1982 74.2421 12.1982C75.2359 12.1982 75.9946 12.5565 76.5311 13.2731V12.3645ZM74.4643 17.6108C75.053 17.6108 75.5502 17.4189 75.9424 17.0349C76.3347 16.6382 76.5311 16.1521 76.5311 15.5635C76.5311 14.9748 76.3347 14.4887 75.9424 14.1048C75.5502 13.7081 75.053 13.5162 74.4643 13.5162C73.8756 13.5162 73.379 13.7081 72.9868 14.1048C72.5938 14.4887 72.3981 14.9748 72.3981 15.5635C72.3981 16.1521 72.5938 16.6382 72.9868 17.0349C73.379 17.4189 73.8756 17.6108 74.4643 17.6108Z" fill="white"/>
<path d="M88.8135 14.8362V18.7644H87.4011V14.9769C87.4011 14.0173 86.8388 13.4928 85.9365 13.4928C84.9419 13.4928 84.2747 14.0941 84.2747 15.3354V18.7644H82.8629V9.80762H84.2747V13.1856C84.7069 12.533 85.3735 12.2004 86.3022 12.2004C87.8061 12.2004 88.8135 13.1984 88.8135 14.8362Z" fill="white"/>
<path d="M94.7039 12.3662H96.1164V18.764H94.7039V17.9451C94.2724 18.5976 93.6058 18.9303 92.677 18.9303C91.1731 18.9303 90.1658 17.9323 90.1658 16.2944V12.3662H91.5782V16.1538C91.5782 17.1133 92.1412 17.638 93.0436 17.638C94.0373 17.638 94.7039 17.0365 94.7039 15.7953V12.3662Z" fill="white"/>
<path d="M103.667 13.1728C104.308 13.8254 104.622 14.6187 104.622 15.5657C104.622 16.4996 104.308 17.3058 103.667 17.9583C103.027 18.611 102.268 18.9308 101.365 18.9308C100.372 18.9308 99.6129 18.5725 99.0764 17.843V18.7644H97.6639V9.80762H99.0764V13.2752C99.6129 12.5586 100.372 12.2004 101.365 12.2004C102.268 12.2004 103.027 12.5202 103.667 13.1728ZM101.143 17.6129C101.731 17.6129 102.229 17.421 102.621 17.037C103.013 16.6403 103.209 16.1542 103.209 15.5657C103.209 14.9769 103.013 14.4908 102.621 14.107C102.229 13.7103 101.731 13.5184 101.143 13.5184C100.555 13.5184 100.057 13.7103 99.6651 14.107C99.2729 14.4908 99.0764 14.9769 99.0764 15.5657C99.0764 16.1542 99.2729 16.6403 99.6651 17.037C100.057 17.421 100.555 17.6129 101.143 17.6129Z" fill="white"/>
<path d="M27.7743 19.3292C27.7534 19.3998 27.7321 19.4701 27.7101 19.5403L27.6889 19.6072C27.6619 19.6915 27.634 19.7754 27.6053 19.859L27.5858 19.9161C27.5557 20.0023 27.5247 20.0883 27.493 20.1737L27.4707 20.2334C27.439 20.3175 27.4064 20.4012 27.3731 20.4845L27.3478 20.5471C27.3141 20.6302 27.2797 20.713 27.2443 20.7952L27.2174 20.857C27.183 20.9359 27.1479 21.0145 27.1121 21.0925L27.0819 21.1577C27.0461 21.2344 27.0097 21.3107 26.9726 21.3866L26.9391 21.4546C26.9022 21.5292 26.8645 21.6034 26.8261 21.6772L26.7898 21.7467C26.7506 21.8209 26.7107 21.8949 26.6703 21.9683L26.6346 22.0327C26.5926 22.108 26.5498 22.1828 26.5063 22.2572L26.4671 22.324C26.4238 22.3971 26.3799 22.4698 26.3353 22.5421L26.2945 22.6074C26.251 22.6771 26.2067 22.7465 26.1618 22.8154L26.1157 22.8857C26.0719 22.9521 26.0276 23.018 25.9825 23.0837L25.9311 23.1582C25.8862 23.2228 25.8407 23.2869 25.7946 23.3506L25.7406 23.4251C25.6942 23.4885 25.6473 23.5515 25.5997 23.6141L25.545 23.6859C25.4967 23.7487 25.4477 23.811 25.3983 23.8729L25.3406 23.9449C25.29 24.0076 25.2387 24.0698 25.1869 24.1316L25.1285 24.2008C25.0797 24.2582 25.0303 24.3152 24.9806 24.3718C24.9571 24.3985 24.9336 24.4252 24.9099 24.4516C24.8619 24.5054 24.8135 24.5588 24.7646 24.6119L24.6847 24.6979C24.6368 24.7491 24.5883 24.7999 24.5396 24.8504C24.512 24.8789 24.4843 24.9074 24.4564 24.9357C24.4072 24.9858 24.3575 25.0356 24.3075 25.0849C24.2803 25.1118 24.253 25.1384 24.2256 25.1651C24.1729 25.2162 24.1199 25.2669 24.0663 25.3172L23.996 25.3829C23.9384 25.4363 23.8802 25.4892 23.8217 25.5417C23.7936 25.5668 23.7652 25.5919 23.7369 25.6168C23.6845 25.6629 23.6318 25.7088 23.5787 25.7541C23.55 25.7787 23.5211 25.8031 23.4922 25.8274C23.4388 25.8722 23.3851 25.9167 23.331 25.9607C23.3016 25.9847 23.272 26.0087 23.2424 26.0324C23.1865 26.0772 23.1303 26.1214 23.0736 26.1654C23.046 26.1868 23.0184 26.2083 22.9905 26.2296C22.9326 26.2738 22.8741 26.3176 22.8154 26.361C22.7807 26.3866 22.7459 26.4121 22.711 26.4375C22.656 26.4773 22.6007 26.5167 22.5451 26.5558C22.5108 26.5799 22.4763 26.6039 22.4417 26.6278C22.3849 26.667 22.3277 26.7057 22.2702 26.7441C22.2345 26.768 22.1986 26.7916 22.1626 26.8152C22.1018 26.855 22.0407 26.8945 21.9792 26.9333C21.9487 26.9526 21.9181 26.9716 21.8874 26.9907C21.8221 27.0313 21.7564 27.0715 21.6903 27.1111C21.6621 27.128 21.6336 27.1447 21.6052 27.1614C21.54 27.1999 21.4745 27.2378 21.4085 27.2752L21.3227 27.3234C21.2554 27.361 21.1878 27.398 21.1198 27.4344L21.0375 27.4782C20.9669 27.5154 20.8959 27.552 20.8247 27.588L20.7482 27.6265C20.6724 27.6643 20.5964 27.7012 20.5199 27.7375L20.4573 27.7674C20.3765 27.8053 20.2951 27.8423 20.2133 27.8788L20.147 27.9082C20.0621 27.9456 19.9767 27.9822 19.8908 28.0179L19.8356 28.0407C19.7483 28.0765 19.6606 28.1117 19.5725 28.1458L19.5191 28.1662C19.4328 28.1993 19.3462 28.2315 19.2591 28.2629L19.2049 28.2822C19.1177 28.3132 19.0302 28.3433 18.9422 28.3727L18.8891 28.3902C18.8002 28.4194 18.7108 28.4478 18.6211 28.4753L18.5693 28.4911C18.4789 28.5184 18.3879 28.5449 18.2967 28.5705L18.2463 28.5846C18.1526 28.6104 18.0584 28.6354 17.9639 28.6594L17.9213 28.6703C17.8205 28.6955 17.7192 28.7196 17.6176 28.7427L17.5978 28.7473C17.4892 28.7717 17.3801 28.7951 17.2704 28.817L17.2601 28.8191C17.1528 28.8405 17.0451 28.8607 16.9371 28.8796L16.9103 28.8842C16.8068 28.9021 16.7029 28.9189 16.5986 28.9347L16.5653 28.9396C16.4629 28.9548 16.3601 28.9689 16.257 28.9818L16.2206 28.9863C16.1177 28.999 16.0146 29.0105 15.9111 29.0209L15.8755 29.0244C15.7706 29.0347 15.6653 29.0438 15.5597 29.0518L15.5291 29.0542C15.4209 29.0622 15.3122 29.0688 15.2032 29.0744L15.1815 29.0755C15.0684 29.0811 14.9548 29.0852 14.8411 29.0882L14.8318 29.0884C14.714 29.0914 14.5959 29.0928 14.4774 29.0928C14.3589 29.0928 14.2408 29.0914 14.123 29.0884L14.1136 29.0882C13.9998 29.0853 13.8865 29.081 13.7735 29.0755L13.7513 29.0744C13.6425 29.0689 13.534 29.0622 13.4258 29.0542L13.3949 29.0518C13.2894 29.0438 13.1843 29.0347 13.0795 29.0244L13.0435 29.0208C12.94 29.0105 12.8369 28.9989 12.7342 28.9863L12.6978 28.9818C12.5947 28.9688 12.4919 28.9548 12.3895 28.9396L12.3562 28.9347C12.2522 28.9191 12.1487 28.9023 12.0455 28.8844L12.0173 28.8795C11.9098 28.8607 11.8027 28.8406 11.6961 28.8193L11.6838 28.8169C11.5746 28.795 11.4658 28.7718 11.3576 28.7474L11.336 28.7424C11.2347 28.7195 11.1339 28.6954 11.0335 28.6703L10.9908 28.6594C10.8963 28.6354 10.8021 28.6104 10.7085 28.5846L10.658 28.5705C10.5671 28.545 10.4765 28.5186 10.3863 28.4914L10.3333 28.4752C10.2441 28.4478 10.1553 28.4197 10.067 28.3907L10.0115 28.3723C9.92408 28.3432 9.83727 28.3132 9.75075 28.2825L9.69553 28.2628C9.60922 28.2317 9.52327 28.1997 9.43776 28.167L9.38117 28.1453C9.2943 28.1117 9.20785 28.077 9.12183 28.0417L9.06089 28.0166C8.97623 27.9813 8.89199 27.9453 8.80812 27.9084L8.74046 27.8784C8.65951 27.8422 8.57899 27.8055 8.49883 27.7679L8.43261 27.7364C8.35695 27.7004 8.28164 27.664 8.20677 27.6267C8.18069 27.6137 8.15476 27.6004 8.12875 27.5873C8.05807 27.5515 7.98759 27.5152 7.91762 27.4783L7.83362 27.4336C7.76607 27.3973 7.69893 27.3606 7.63209 27.3234L7.54625 27.2752C7.48034 27.2378 7.41479 27.1999 7.3496 27.1614L7.26448 27.1111C7.19872 27.0717 7.13343 27.0318 7.06844 26.9914C7.03582 26.9711 7.0033 26.9508 6.97088 26.9303C6.91098 26.8924 6.85145 26.854 6.79222 26.8152C6.75569 26.7914 6.71937 26.7673 6.6831 26.7431C6.62664 26.7054 6.57039 26.6674 6.51455 26.6288C6.47946 26.6046 6.44453 26.5803 6.40964 26.5558C6.35406 26.5167 6.29878 26.4772 6.24382 26.4375C6.20822 26.4117 6.17287 26.3857 6.13758 26.3596C6.08009 26.3171 6.02282 26.2743 5.96605 26.2309C5.93738 26.209 5.90882 26.1868 5.88036 26.1648C5.82401 26.1211 5.76801 26.077 5.71238 26.0324C5.68273 26.0086 5.6532 25.9847 5.62376 25.9607C5.56967 25.9167 5.51593 25.8722 5.46256 25.8274C5.43364 25.8031 5.40482 25.7787 5.3761 25.7541C5.32298 25.7088 5.27027 25.663 5.21787 25.6168C5.18957 25.5919 5.16121 25.5668 5.13306 25.5417C5.07449 25.4892 5.01639 25.4363 4.95875 25.3829L4.88842 25.3172C4.8353 25.2673 4.78265 25.2169 4.73035 25.1662C4.70256 25.1392 4.67487 25.1122 4.64728 25.0849C4.59725 25.0356 4.54762 24.9858 4.49836 24.9357C4.47052 24.9074 4.44278 24.8789 4.41518 24.8504C4.36644 24.7999 4.31809 24.7491 4.27012 24.6979L4.19013 24.6119C4.14194 24.5595 4.09411 24.5068 4.04675 24.4537L3.97324 24.3708C3.92392 24.3146 3.87506 24.2581 3.82672 24.2012L3.766 24.1293C3.71489 24.0683 3.66433 24.0069 3.6143 23.945C3.59427 23.9203 3.57438 23.8954 3.55455 23.8705C3.50739 23.8114 3.46069 23.7518 3.41451 23.6919C3.39381 23.665 3.37326 23.638 3.35276 23.6111C3.30699 23.5507 3.26174 23.4899 3.21694 23.4288L3.1574 23.3468C3.11332 23.2857 3.06971 23.2242 3.02666 23.1624L2.96917 23.0791C2.92612 23.0162 2.88359 22.953 2.84156 22.8894L2.79004 22.8108C2.74689 22.7445 2.70435 22.6778 2.66238 22.6107L2.61784 22.5393C2.57443 22.469 2.53179 22.3982 2.48967 22.3271L2.44667 22.2541C2.40439 22.1817 2.36277 22.1088 2.32184 22.0355L2.28258 21.9647C2.24375 21.8942 2.20547 21.8233 2.16787 21.752L2.12662 21.673C2.08963 21.6018 2.05326 21.5302 2.0175 21.4582L1.97985 21.3817C1.9443 21.3089 1.90942 21.2358 1.87515 21.1624L1.84048 21.0875C1.80565 21.0115 1.77154 20.9352 1.73809 20.8586L1.70933 20.7923C1.67439 20.7109 1.64028 20.6292 1.60694 20.5471L1.58167 20.4845C1.54838 20.4014 1.51591 20.3179 1.48427 20.2339L1.46084 20.171C1.42945 20.0864 1.39878 20.0014 1.36904 19.9161L1.34947 19.859C1.3208 19.7754 1.29296 19.6915 1.26588 19.6072L1.24467 19.5403C1.22258 19.4702 1.20136 19.3997 1.18045 19.3292C1.01956 18.7338 1.3337 18.1043 1.92221 17.8768C4.91704 16.7193 9.42961 15.9825 14.4774 15.9825C19.5253 15.9825 24.0378 16.7193 27.0326 17.8768C27.6211 18.1043 27.9353 18.7338 27.7743 19.3292ZM1.1804 11.7678C1.20152 11.6967 1.22283 11.6256 1.24513 11.5549L1.26527 11.4915C1.2927 11.406 1.3209 11.321 1.34998 11.2362L1.36863 11.1819C1.39878 11.0952 1.42991 11.0089 1.46182 10.923L1.48339 10.8652C1.5155 10.78 1.54848 10.6952 1.58223 10.6108L1.60627 10.5513C1.64013 10.4678 1.67481 10.3847 1.71035 10.302L1.73661 10.2416C1.77097 10.1628 1.80596 10.0844 1.84177 10.0064L1.87413 9.93653C1.9087 9.8624 1.94395 9.78856 1.97985 9.71506L2.0171 9.63939C2.05326 9.56645 2.09015 9.49387 2.12765 9.42164L2.16618 9.34793C2.2046 9.27514 2.24365 9.20269 2.28336 9.13067L2.32178 9.06131C2.36272 8.98803 2.40434 8.91518 2.44667 8.84271L2.48967 8.76962C2.5321 8.6979 2.57515 8.62659 2.61887 8.55577L2.66104 8.48808C2.70358 8.42012 2.74673 8.35247 2.79045 8.28528L2.84156 8.20738C2.88384 8.14335 2.92663 8.07972 2.96999 8.01649L3.02666 7.93442C3.07007 7.87209 3.11404 7.81007 3.15848 7.74846L3.21617 7.66905C3.26137 7.60738 3.30699 7.54606 3.35323 7.48515L3.41133 7.409C3.459 7.34703 3.50729 7.28547 3.55604 7.22435L3.61419 7.15188C3.66475 7.0893 3.71586 7.02723 3.76759 6.96557L3.82641 6.89596C3.87589 6.83775 3.92582 6.77995 3.97626 6.72256L4.04444 6.64557C4.09365 6.59043 4.14327 6.53569 4.19336 6.48136L4.26729 6.4018C4.31707 6.34858 4.36736 6.29581 4.41801 6.24339L4.49543 6.16398C4.54583 6.11272 4.59653 6.06185 4.6477 6.01139C4.67513 5.98435 4.70271 5.95741 4.73035 5.93058C4.78265 5.87986 4.8353 5.82945 4.88842 5.77954L4.95875 5.7138C5.01634 5.66043 5.07449 5.60756 5.13306 5.55509C5.16116 5.5299 5.18951 5.50492 5.21787 5.47994C5.27032 5.43381 5.32298 5.38797 5.3761 5.34259C5.40466 5.31821 5.43332 5.29388 5.46209 5.26971C5.51639 5.22413 5.57105 5.17894 5.62602 5.13416C5.65407 5.11134 5.68212 5.08858 5.71038 5.06596C5.76683 5.02067 5.82375 4.97595 5.88098 4.93152C5.90918 4.90965 5.93733 4.88774 5.96569 4.86608C6.02364 4.82185 6.08205 4.77822 6.14071 4.73485C6.17293 4.71108 6.20519 4.68726 6.23761 4.66374C6.29493 4.62212 6.35262 4.58106 6.41062 4.54029C6.44515 4.51602 6.47977 4.4919 6.51455 4.46792C6.57039 4.42943 6.62664 4.39133 6.6831 4.35363C6.71937 4.32941 6.75569 4.30538 6.79222 4.28151C6.8515 4.24276 6.91098 4.20431 6.97088 4.16642C7.0033 4.14592 7.03582 4.12561 7.06844 4.10535C7.13343 4.06499 7.19872 4.02499 7.26448 3.98563C7.29253 3.96885 7.32078 3.95226 7.34893 3.93567C7.41525 3.89663 7.48188 3.85808 7.54887 3.82008L7.62916 3.77494C7.69718 3.73705 7.76551 3.69966 7.83419 3.66282L7.91762 3.61839C7.98759 3.5815 8.05802 3.54521 8.12875 3.50943C8.15476 3.49626 8.18069 3.48304 8.20677 3.47007C8.28164 3.43278 8.35695 3.39634 8.43261 3.36036L8.49883 3.3288C8.57892 3.29115 8.65951 3.25446 8.74046 3.21838L8.80812 3.18832C8.89199 3.15148 8.97623 3.11544 9.06089 3.08016L9.12183 3.05503C9.20785 3.0197 9.2943 2.98502 9.38117 2.95134L9.43776 2.92974C9.52327 2.89702 9.60922 2.865 9.69553 2.83389L9.75075 2.81429C9.8372 2.78353 9.92408 2.75352 10.0115 2.72443L10.067 2.70608C10.1553 2.67708 10.2441 2.64888 10.3333 2.62155L10.3863 2.60536C10.4765 2.57812 10.5671 2.55178 10.658 2.52625L10.7085 2.51213C10.8021 2.4862 10.8963 2.46132 10.9908 2.43734L11.0335 2.42649C11.1338 2.40131 11.2347 2.37723 11.336 2.35426L11.3576 2.34929C11.4658 2.32486 11.5746 2.30174 11.6838 2.27983L11.6961 2.27742C11.8027 2.25611 11.9098 2.2361 12.0173 2.21721L12.0455 2.21238C12.1487 2.19449 12.2523 2.1777 12.3562 2.16202L12.3895 2.15715C12.4919 2.14197 12.5947 2.1279 12.6978 2.11493L12.7342 2.11046C12.8369 2.09784 12.94 2.08633 13.0435 2.07588L13.0795 2.07231C13.1843 2.06206 13.2894 2.05291 13.3949 2.04492L13.4258 2.04256C13.534 2.03461 13.6425 2.02793 13.7513 2.0224L13.7735 2.02125C13.8865 2.01572 13.9998 2.01145 14.1136 2.00858L14.123 2.00828C14.2407 2.00541 14.3589 2.00391 14.4774 2.00391C14.5959 2.00391 14.714 2.00531 14.8318 2.00828L14.8411 2.00858C14.9548 2.01145 15.0683 2.01567 15.1815 2.02125L15.2032 2.0224C15.3122 2.02793 15.4208 2.03461 15.5291 2.04256L15.5597 2.04492C15.6653 2.05291 15.7706 2.06201 15.8755 2.07231L15.9111 2.07583C16.0146 2.08623 16.1177 2.09779 16.2206 2.11046L16.257 2.11493C16.3601 2.12785 16.4629 2.14197 16.5653 2.15715L16.5986 2.16202C16.7029 2.17775 16.8068 2.19464 16.9103 2.21258L16.9371 2.21711C17.0451 2.23605 17.1528 2.25626 17.2601 2.27767L17.2704 2.27968C17.3801 2.30164 17.4892 2.32491 17.5978 2.34944L17.6176 2.35401C17.7193 2.37708 17.8205 2.40126 17.9213 2.42649L17.9639 2.43734C18.0584 2.46132 18.1526 2.48625 18.2463 2.51213L18.2967 2.52625C18.3879 2.55188 18.4789 2.57827 18.5693 2.60561L18.6211 2.62139C18.7108 2.64888 18.8002 2.67728 18.8891 2.70653L18.9422 2.72402C19.0302 2.75338 19.1177 2.78358 19.2049 2.81459L19.2591 2.83384C19.3462 2.86515 19.4328 2.89747 19.5191 2.93049L19.5725 2.9509C19.6607 2.98502 19.7483 3.02015 19.8356 3.05603L19.8908 3.0788C19.9767 3.11454 20.0621 3.15108 20.147 3.18847L20.2133 3.21797C20.2951 3.25441 20.3765 3.29145 20.4573 3.3294L20.5199 3.3592C20.5964 3.39559 20.6724 3.43248 20.7482 3.47018L20.8247 3.50873C20.8959 3.54476 20.9669 3.58135 21.0375 3.61854L21.1192 3.66206C21.1883 3.69916 21.2572 3.73675 21.3256 3.77494L21.4059 3.82008C21.4729 3.85808 21.5396 3.89663 21.6059 3.93567C21.634 3.95226 21.6622 3.96885 21.6903 3.98563C21.7564 4.02524 21.8221 4.06545 21.8874 4.10605C21.9181 4.12511 21.9487 4.14415 21.9792 4.16341C22.0407 4.20231 22.1018 4.2417 22.1626 4.28151C22.1986 4.30508 22.2345 4.32876 22.2702 4.35263C22.3277 4.39098 22.3849 4.42978 22.4417 4.46893C22.4759 4.49255 22.5101 4.51637 22.5441 4.54029C22.6022 4.58106 22.6599 4.62212 22.7172 4.66374C22.749 4.6868 22.7807 4.71013 22.8123 4.73349C22.8721 4.77772 22.9317 4.82225 22.9908 4.86738C23.0184 4.88844 23.0457 4.90965 23.073 4.93092C23.1305 4.97555 23.1877 5.02048 23.2444 5.06596L23.3287 5.13416C23.3838 5.17894 23.4384 5.22413 23.4927 5.26971C23.5214 5.29388 23.5502 5.31821 23.5787 5.34259C23.6317 5.38803 23.6845 5.43381 23.7369 5.47994C23.7653 5.50488 23.7936 5.5299 23.8217 5.55509C23.8803 5.6075 23.9385 5.66038 23.996 5.7138L24.0663 5.77954C24.1199 5.82986 24.1729 5.88057 24.2256 5.93168C24.2529 5.95816 24.2801 5.9847 24.3071 6.01139C24.3583 6.06185 24.409 6.11272 24.4594 6.16398C24.4852 6.19036 24.5111 6.2168 24.5368 6.24339C24.5875 6.29581 24.6378 6.34858 24.6875 6.4018L24.7614 6.48136C24.8121 6.53635 24.8623 6.59173 24.9121 6.64752L24.9777 6.72156C25.0286 6.77941 25.079 6.83771 25.1289 6.89646L25.1854 6.9633C25.2377 7.02577 25.2895 7.08875 25.3408 7.15207L25.3969 7.22204C25.4479 7.28597 25.4985 7.35035 25.5483 7.41524L25.5992 7.48198C25.6471 7.54511 25.6945 7.60863 25.7413 7.67261L25.7937 7.74474C25.8401 7.80902 25.8859 7.8736 25.9311 7.93864L25.9818 8.01202C26.027 8.07796 26.0716 8.14435 26.1157 8.21109L26.1614 8.28075C26.2069 8.35057 26.2518 8.42078 26.2959 8.49144L26.3342 8.55301C26.3792 8.62584 26.4234 8.69912 26.4671 8.77279L26.5063 8.83959C26.5498 8.91402 26.5926 8.9888 26.6346 9.06412L26.6695 9.12709C26.7109 9.20213 26.7516 9.27759 26.7916 9.35347L26.825 9.4175C26.8639 9.49226 26.902 9.56744 26.9395 9.64297L26.9726 9.71015C27.0101 9.7868 27.0468 9.8638 27.0829 9.94123L27.1107 10.0012C27.1475 10.0814 27.1836 10.1621 27.2189 10.2432L27.2433 10.2992C27.2792 10.3828 27.3142 10.4668 27.3485 10.5513L27.3726 10.6108C27.4064 10.6954 27.4394 10.7803 27.4716 10.8657L27.492 10.9204C27.5242 11.0072 27.5557 11.0943 27.5862 11.1819L27.6048 11.2362C27.6338 11.321 27.6621 11.406 27.6895 11.4915L27.7096 11.5549C27.7319 11.6256 27.7533 11.6967 27.7744 11.7678C27.9351 12.3632 27.621 12.9926 27.0326 13.2199C24.0378 14.3774 19.5253 15.1143 14.4774 15.1143C9.42961 15.1143 4.91704 14.3774 1.92221 13.2199C1.3338 12.9926 1.01976 12.3632 1.1804 11.7678Z" fill="#E7E8E9"/>
<path d="M26.087 17.5419C25.1219 22.9593 20.292 27.078 14.4784 27.078C8.66483 27.078 3.83494 22.9593 2.86987 17.5419C5.8293 16.5793 9.93718 15.9829 14.4784 15.9829C19.0198 15.9829 23.1275 16.5793 26.087 17.5419ZM2.86992 13.5557C3.83499 8.13824 8.66483 4.01953 14.4784 4.01953C20.292 4.01953 25.1219 8.13824 26.087 13.5557C23.1275 14.5182 19.0198 15.1147 14.4784 15.1147C9.93718 15.1147 5.82935 14.5182 2.86992 13.5557Z" fill="#B9BBBD"/>
<path d="M24.0914 16.9901C23.3816 21.5608 19.3477 25.0634 14.4775 25.0634C9.60738 25.0634 5.5734 21.5608 4.86365 16.9901C7.56046 16.3571 10.8832 15.9834 14.4775 15.9834C18.0718 15.9834 21.3945 16.3571 24.0914 16.9901ZM4.8637 14.1084C5.57345 9.53764 9.60738 6.03516 14.4775 6.03516C19.3477 6.03516 23.3816 9.53764 24.0913 14.1084C21.3945 14.7414 18.0718 15.1151 14.4775 15.1151C10.8832 15.1151 7.56052 14.7414 4.8637 14.1084Z" fill="#8E9092"/>
<path d="M22.0698 16.583C21.5543 20.2344 18.352 23.0466 14.4779 23.0466C10.6038 23.0466 7.4015 20.2344 6.88599 16.583C9.15397 16.1991 11.737 15.9819 14.4779 15.9819C17.2188 15.9819 19.8018 16.1991 22.0698 16.583ZM6.88599 14.5125C7.4015 10.861 10.6038 8.04883 14.4779 8.04883C18.352 8.04883 21.5543 10.861 22.0698 14.5125C19.8018 14.8963 17.2188 15.1136 14.4779 15.1136C11.737 15.1136 9.15397 14.8963 6.88599 14.5125Z" fill="#656668"/>
<path d="M20.0316 16.2931C19.6597 18.9688 17.3153 21.031 14.4782 21.031C11.6412 21.031 9.29694 18.9688 8.92493 16.2931C10.6585 16.0914 12.5284 15.9814 14.4782 15.9814C16.4282 15.9814 18.2981 16.0914 20.0316 16.2931ZM8.92493 14.8014C9.29694 12.1256 11.6413 10.0635 14.4782 10.0635C17.3153 10.0635 19.6597 12.1256 20.0316 14.8014C18.2981 15.003 16.4282 15.1131 14.4782 15.1131C12.5284 15.1131 10.6585 15.003 8.92493 14.8014Z" fill="#231F20"/>
</g>
</g>
<defs>
<clipPath id="clip0_1_3836">
<rect width="105" height="29" fill="white"/>
</clipPath>
<clipPath id="clip1_1_3836">
<rect width="106" height="27.993" fill="white" transform="translate(0 1)"/>
</clipPath>
</defs>
</svg>
