<svg width="110" height="36" viewBox="0 0 110 36" fill="none" xmlns="http://www.w3.org/2000/svg">
<path d="M8.62644 23.8258C8.62644 23.342 8.4497 22.9234 8.0962 22.5699C7.76131 22.2164 7.3334 21.8909 6.81246 21.5932C6.31013 21.2955 5.75198 20.9978 5.13802 20.7001C4.54267 20.4025 3.98452 20.0583 3.46358 19.6676C2.96125 19.2583 2.53334 18.7838 2.17984 18.2443C1.84496 17.7048 1.67751 17.0443 1.67751 16.2629C1.67751 15.7047 1.80775 15.2024 2.06821 14.7559C2.32868 14.2908 2.68218 13.9001 3.12869 13.5838C3.57521 13.2675 4.10545 13.0256 4.71941 12.8582C5.35198 12.6721 6.03106 12.5791 6.75665 12.5791C7.76131 12.5791 8.69156 12.6628 9.54738 12.8303C10.4218 12.9791 11.1846 13.1931 11.8358 13.4721C11.7614 14.0675 11.6125 14.7094 11.3893 15.3978C11.166 16.0675 10.9521 16.6815 10.7474 17.2396H9.79855L8.62644 14.3931C8.40318 14.3001 8.17062 14.2442 7.92876 14.2256C7.68689 14.1884 7.41712 14.1698 7.11944 14.1698C6.5613 14.1698 6.13339 14.3373 5.83571 14.6722C5.55663 14.9884 5.4171 15.3512 5.4171 15.7605C5.4171 16.2257 5.58454 16.635 5.91943 16.9885C6.27292 17.3234 6.70083 17.6396 7.20317 17.9373C7.7241 18.235 8.28225 18.5327 8.87761 18.8304C9.49157 19.128 10.0497 19.4722 10.552 19.8629C11.073 20.235 11.5009 20.6815 11.8358 21.2025C12.1893 21.7234 12.366 22.3467 12.366 23.0723C12.366 24.356 11.8451 25.37 10.8032 26.1142C9.76134 26.8398 8.36597 27.2026 6.61711 27.2026C5.72408 27.2026 4.80313 27.1095 3.85428 26.9235C2.90543 26.7374 2.08682 26.477 1.39844 26.1421C1.43565 25.4723 1.59379 24.7932 1.87286 24.1048C2.15194 23.4165 2.44961 22.8025 2.7659 22.263H3.71475L5.08221 25.3049C5.28686 25.4537 5.51012 25.5467 5.75198 25.5839C6.01245 25.6025 6.25432 25.6118 6.47758 25.6118C7.01712 25.6118 7.51015 25.4537 7.95667 25.1374C8.40318 24.8211 8.62644 24.3839 8.62644 23.8258Z" fill="#123437"/>
<path d="M30.7332 26.8677H23.3378V25.7793C23.561 25.6491 23.7936 25.5281 24.0354 25.4165C24.2773 25.3049 24.5564 25.2025 24.8727 25.1095V19.4722C24.8727 17.8722 24.7145 16.7001 24.3982 15.9559C24.1006 15.1931 23.5052 14.8117 22.6122 14.8117C21.868 14.8117 21.2354 15.0722 20.7145 15.5931C20.1935 16.0954 19.8214 16.6815 19.5982 17.3513V25.1095C19.8959 25.1839 20.1563 25.2677 20.3796 25.3607C20.6214 25.4537 20.8726 25.5932 21.1331 25.7793V26.8677H13.7376V25.7793C14.3144 25.4816 14.9283 25.2583 15.5795 25.1095V8.19766L13.4586 7.9744V6.88601C13.7376 6.77438 14.0911 6.66275 14.519 6.55112C14.9656 6.43949 15.4307 6.34647 15.9144 6.27205C16.3981 6.17903 16.8819 6.10461 17.3656 6.04879C17.8493 5.97437 18.2772 5.91856 18.6493 5.88135H19.5982V15.7326H19.6261C19.8121 15.3047 20.0633 14.9047 20.3796 14.5326C20.6959 14.1419 21.0494 13.807 21.4401 13.528C21.8494 13.2303 22.2866 12.9977 22.7517 12.8303C23.2168 12.6628 23.7099 12.5791 24.2308 12.5791C24.975 12.5791 25.6355 12.6721 26.2122 12.8582C26.8076 13.0256 27.3006 13.3326 27.6913 13.7791C28.082 14.2256 28.3797 14.8303 28.5843 15.5931C28.789 16.3373 28.8913 17.2862 28.8913 18.4397V25.1095C29.2076 25.1839 29.5239 25.2677 29.8402 25.3607C30.1565 25.4537 30.4541 25.5932 30.7332 25.7793V26.8677Z" fill="#123437"/>
<path d="M44.1747 22.8211C44.1747 23.2304 44.1747 23.5839 44.1747 23.8816C44.1933 24.1793 44.2212 24.4955 44.2585 24.8304L46.1841 25.1095V26.0863C45.9608 26.1979 45.6538 26.3095 45.2631 26.4212C44.891 26.5328 44.491 26.6444 44.0631 26.756C43.6538 26.8491 43.2445 26.9235 42.8352 26.9793C42.4259 27.0537 42.0631 27.1095 41.7468 27.1467H40.7979C40.6119 26.7188 40.5003 26.2909 40.4631 25.863C40.4258 25.4351 40.3979 24.9142 40.3793 24.3002H40.2398C40.1468 24.6723 39.9886 25.0351 39.7654 25.3886C39.5421 25.7235 39.2537 26.0305 38.9002 26.3095C38.5654 26.57 38.1654 26.784 37.7002 26.9514C37.2351 27.1188 36.7142 27.2026 36.1374 27.2026C35.5235 27.2026 34.956 27.1095 34.4351 26.9235C33.9141 26.7374 33.4583 26.477 33.0676 26.1421C32.6769 25.8072 32.3699 25.4072 32.1467 24.9421C31.9234 24.4583 31.8118 23.9188 31.8118 23.3234C31.8118 22.4862 31.9699 21.7978 32.2862 21.2583C32.6025 20.7188 33.0955 20.2815 33.7653 19.9467C34.4537 19.5932 35.3281 19.3327 36.3886 19.1652C37.4677 18.9978 38.77 18.8769 40.2956 18.8025C40.4445 17.2024 40.3793 16.0303 40.1003 15.2861C39.8212 14.5419 39.2165 14.1698 38.2863 14.1698C37.7095 14.1698 37.1793 14.2629 36.6956 14.4489L35.3839 17.7978H34.156C34.0072 17.5745 33.8583 17.3234 33.7095 17.0443C33.5792 16.7466 33.449 16.4396 33.3188 16.1233C33.2071 15.7885 33.1048 15.4536 33.0118 15.1187C32.9374 14.7838 32.8816 14.4582 32.8444 14.1419C33.5513 13.6582 34.463 13.2768 35.5793 12.9977C36.6956 12.7186 37.877 12.5791 39.1235 12.5791C40.184 12.5791 41.0491 12.7 41.7189 12.9419C42.3887 13.1652 42.9096 13.4814 43.2817 13.8908C43.6724 14.2815 43.9422 14.7466 44.091 15.2861C44.2399 15.8257 44.3143 16.4024 44.3143 17.0164C44.3143 18.1327 44.2864 19.1466 44.2306 20.0583C44.1933 20.9513 44.1747 21.8723 44.1747 22.8211ZM37.8956 24.97C38.2863 24.97 38.6212 24.8956 38.9002 24.7467C39.1793 24.5979 39.4119 24.4211 39.5979 24.2165C39.8026 24.0118 39.9514 23.7886 40.0445 23.5467C40.1561 23.3048 40.2398 23.0909 40.2956 22.9048V20.1141C39.4212 20.1327 38.7049 20.1885 38.1468 20.2815C37.5886 20.3746 37.1514 20.5327 36.8351 20.756C36.5188 20.9606 36.2956 21.2304 36.1653 21.5653C36.0537 21.8816 35.9979 22.2723 35.9979 22.7374C35.9979 23.4444 36.1653 23.9932 36.5002 24.3839C36.8351 24.7746 37.3002 24.97 37.8956 24.97Z" fill="#123437"/>
<path d="M55.1602 26.8677H47.4578V25.7793C47.7369 25.6304 48.0252 25.5095 48.3229 25.4165C48.6206 25.3049 48.9462 25.2025 49.2997 25.1095V14.8954L47.4578 14.6722V13.5838C47.7369 13.4721 48.081 13.3605 48.4904 13.2489C48.9183 13.1373 49.3648 13.0442 49.8299 12.9698C50.295 12.8768 50.7508 12.8024 51.1974 12.7466C51.6439 12.6721 52.0346 12.6163 52.3695 12.5791H53.3183V25.1095C53.6904 25.2025 54.0253 25.3049 54.323 25.4165C54.6207 25.5095 54.8997 25.6304 55.1602 25.7793V26.8677ZM48.8252 8.33719C48.8252 7.68602 49.0485 7.17439 49.495 6.80229C49.9415 6.43019 50.5183 6.24414 51.2253 6.24414C51.9323 6.24414 52.509 6.43019 52.9555 6.80229C53.402 7.17439 53.6253 7.68602 53.6253 8.33719C53.6253 8.96976 53.402 9.47209 52.9555 9.84419C52.509 10.2163 51.9323 10.4023 51.2253 10.4023C50.5183 10.4023 49.9415 10.2163 49.495 9.84419C49.0485 9.47209 48.8252 8.96976 48.8252 8.33719Z" fill="#123437"/>
<path d="M57.6169 24.8863C57.6169 24.2165 57.8309 23.6769 58.2588 23.2676C58.6867 22.8583 59.2542 22.6537 59.9611 22.6537C60.6681 22.6537 61.2449 22.8583 61.6914 23.2676C62.1379 23.6769 62.3612 24.2165 62.3612 24.8863C62.3612 25.556 62.1379 26.0956 61.6914 26.5049C61.2449 26.8956 60.6681 27.0909 59.9611 27.0909C59.2542 27.0909 58.6867 26.8956 58.2588 26.5049C57.8309 26.0956 57.6169 25.556 57.6169 24.8863Z" fill="#123437"/>
<path d="M72.405 32.4491H64.7026V31.3608C65.3351 31.0631 65.9491 30.8398 66.5444 30.691V14.8954L64.7026 14.6722V13.5838C65.0002 13.4535 65.363 13.3326 65.7909 13.221C66.2375 13.1094 66.6933 13.0163 67.1584 12.9419C67.6235 12.8489 68.07 12.7745 68.498 12.7186C68.9445 12.6628 69.3166 12.6163 69.6142 12.5791H70.5631V15.7047H70.591C70.9073 14.8117 71.4003 14.0675 72.0701 13.4721C72.7585 12.8768 73.7073 12.5791 74.9166 12.5791C75.7353 12.5791 76.4702 12.7186 77.1213 12.9977C77.7911 13.2582 78.3493 13.6768 78.7958 14.2536C79.2609 14.8117 79.6144 15.5373 79.8562 16.4303C80.1167 17.3048 80.2469 18.3559 80.2469 19.5839C80.2469 20.756 80.0795 21.8164 79.7446 22.7653C79.4283 23.7141 78.9632 24.5142 78.3493 25.1653C77.7539 25.8165 77.019 26.3188 76.1446 26.6723C75.2887 27.0258 74.312 27.2026 73.2143 27.2026C72.5817 27.2026 72.0794 27.156 71.7073 27.063C71.3538 26.9886 70.9724 26.8491 70.5631 26.6444V30.691C70.8608 30.7282 71.1585 30.7933 71.4561 30.8863C71.7538 30.998 72.0701 31.1561 72.405 31.3608V32.4491ZM73.298 14.8117C72.6655 14.8117 72.098 15.035 71.5957 15.4815C71.1119 15.928 70.7678 16.6164 70.5631 17.5466V24.97C70.8608 25.1932 71.1771 25.3607 71.5119 25.4723C71.8468 25.5653 72.284 25.6118 72.8236 25.6118C73.8841 25.6118 74.6655 25.1002 75.1678 24.0769C75.6702 23.0537 75.9213 21.556 75.9213 19.5839C75.9213 18.0583 75.726 16.8861 75.3353 16.0675C74.9632 15.2303 74.2841 14.8117 73.298 14.8117Z" fill="#123437"/>
<path d="M89.2157 16.1233C88.9924 16.235 88.732 16.421 88.4343 16.6815C88.1366 16.942 87.8668 17.3699 87.625 17.9652V25.1095C87.9971 25.1467 88.3692 25.2211 88.7412 25.3328C89.1133 25.4258 89.4854 25.5746 89.8575 25.7793V26.8677H81.7644V25.7793C82.0993 25.5932 82.4156 25.4537 82.7133 25.3607C83.0109 25.2677 83.3086 25.1839 83.6063 25.1095V14.8954L81.7644 14.6722V13.5838C82.0621 13.4535 82.4249 13.3326 82.8528 13.221C83.2993 13.1094 83.7551 13.0163 84.2203 12.9419C84.6854 12.8489 85.1319 12.7745 85.5598 12.7186C86.0063 12.6628 86.3784 12.6163 86.6761 12.5791H87.625V16.2908H87.7366C87.8854 15.8815 88.0994 15.4536 88.3785 15.0071C88.6761 14.5605 89.0203 14.1512 89.411 13.7791C89.8017 13.407 90.2296 13.1094 90.6948 12.8861C91.1599 12.6628 91.6436 12.5605 92.146 12.5791C92.3506 12.8396 92.5274 13.2117 92.6762 13.6954C92.825 14.1605 92.946 14.607 93.039 15.035V16.1233H89.2157Z" fill="#123437"/>
<path d="M94.0064 19.8908C94.0064 18.7559 94.1738 17.742 94.5087 16.8489C94.8622 15.9373 95.3552 15.1652 95.9878 14.5326C96.639 13.9001 97.4204 13.4163 98.332 13.0814C99.2436 12.7466 100.276 12.5791 101.43 12.5791C102.732 12.5791 103.848 12.7652 104.779 13.1373C105.727 13.4908 106.5 13.9931 107.095 14.6443C107.709 15.2768 108.155 16.0489 108.434 16.9606C108.714 17.8536 108.853 18.8304 108.853 19.8908C108.853 21.0257 108.686 22.049 108.351 22.9606C108.016 23.8537 107.523 24.6165 106.872 25.249C106.239 25.8816 105.458 26.3653 104.527 26.7002C103.616 27.0351 102.583 27.2026 101.43 27.2026C100.165 27.2026 99.0669 27.0258 98.1367 26.6723C97.2064 26.3002 96.4343 25.7979 95.8203 25.1653C95.2064 24.5142 94.7506 23.7421 94.4529 22.849C94.1552 21.9374 94.0064 20.9513 94.0064 19.8908ZM98.332 19.8908C98.332 20.7281 98.3785 21.5002 98.4715 22.2071C98.5832 22.8955 98.7692 23.4816 99.0297 23.9653C99.2902 24.449 99.6436 24.8304 100.09 25.1095C100.537 25.37 101.113 25.5002 101.82 25.5002C102.23 25.5002 102.602 25.4072 102.937 25.2211C103.272 25.0165 103.56 24.7002 103.802 24.2723C104.044 23.8258 104.22 23.249 104.332 22.542C104.462 21.8164 104.527 20.9327 104.527 19.8908C104.527 19.035 104.472 18.2629 104.36 17.5745C104.267 16.8861 104.09 16.3001 103.83 15.8164C103.588 15.3326 103.253 14.9605 102.825 14.7001C102.397 14.421 101.858 14.2815 101.206 14.2815C100.723 14.2815 100.304 14.3838 99.9506 14.5884C99.5971 14.7745 99.2995 15.0908 99.0576 15.5373C98.8157 15.9652 98.6297 16.542 98.4994 17.2675C98.3878 17.9745 98.332 18.849 98.332 19.8908Z" fill="#123437"/>
</svg>
